<svg xmlns="http://www.w3.org/2000/svg" xmlns:svg="http://www.w3.org/2000/svg" xmlns:xlink="http://www.w3.org/1999/xlink" id="svg2" width="30" height="30" version="1.0"><defs id="defs4"><linearGradient id="linearGradient3224"><stop style="stop-color:#f9a2a2;stop-opacity:1" id="stop3226" offset="0"/><stop style="stop-color:#ef2929;stop-opacity:1" id="stop3228" offset="1"/></linearGradient><linearGradient id="linearGradient3216"><stop style="stop-color:#5a8fc7;stop-opacity:1" id="stop3218" offset="0"/><stop style="stop-color:#bfd4ea;stop-opacity:1" id="stop3220" offset="1"/></linearGradient><linearGradient id="linearGradient3208"><stop style="stop-color:#7bdb1e;stop-opacity:1" id="stop3210" offset="0"/><stop style="stop-color:#bbef89;stop-opacity:1" id="stop3212" offset="1"/></linearGradient><linearGradient id="linearGradient3194"><stop style="stop-color:#fee440;stop-opacity:1" id="stop3196" offset="0"/><stop style="stop-color:#fda221;stop-opacity:1" id="stop3198" offset="1"/></linearGradient><linearGradient id="linearGradient2418" x1="23" x2="27" y1="19" y2="23" gradientTransform="translate(0,1.5)" gradientUnits="userSpaceOnUse" xlink:href="#linearGradient3224"/><linearGradient id="linearGradient2421" x1="17" x2="13" y1="23" y2="19" gradientTransform="translate(0,1.5)" gradientUnits="userSpaceOnUse" xlink:href="#linearGradient3216"/><linearGradient id="linearGradient2424" x1="7" x2="3" y1="23" y2="19" gradientTransform="translate(0,1.5)" gradientUnits="userSpaceOnUse" xlink:href="#linearGradient3208"/><linearGradient id="linearGradient2427" x1="13" x2="17" y1="4" y2="8" gradientTransform="translate(0,1.5)" gradientUnits="userSpaceOnUse" xlink:href="#linearGradient3194"/></defs><metadata id="metadata7"/><g id="layer1"><rect style="fill:#427bc3;fill-opacity:1;stroke:none" id="rect3465" width="6" height="0" x="16" y="12.5" ry="0"/><g id="g2518"><path id="rect2393" d="M 11,3.5 L 19,3.5 L 19,11.5 L 11,11.5 L 11,3.5 z" style="fill:#ce5c00;fill-opacity:1;stroke:none"/><path id="rect2395" d="M 1,18.5 L 9,18.5 L 9,26.5 L 1,26.5 L 1,18.5 z" style="fill:#4e9a06;fill-opacity:1;stroke:none"/><path id="rect2397" d="M 11,18.5 L 19,18.5 L 19,26.5 L 11,26.5 L 11,18.5 z" style="fill:#204a87;fill-opacity:1;stroke:none"/><path id="rect2399" d="M 21,18.5 L 29,18.5 L 29,26.5 L 21,26.5 L 21,18.5 z" style="fill:#a40000;fill-opacity:1;stroke:none"/><path id="path2421" d="M 13.875,13.5 C 13.59682,13.560279 13.400323,13.809175 13.40625,14.09375 L 13.40625,14.5 L 6,14.5 C 5,14.5 4,14.5 3.40625,15.5 L 3.40625,15.90625 C 3.4068581,16.233917 3.6723331,16.499392 4,16.5 L 6,16.5 C 6.3276669,16.499392 6.5931419,16.233917 6.59375,15.90625 L 23.40625,15.90625 C 23.406858,16.233917 23.672333,16.499392 24,16.5 L 26,16.5 C 26.327667,16.499392 26.593142,16.233917 26.59375,15.90625 L 26.59375,15.5 C 26,14.5 25,14.5 24,14.5 L 16.59375,14.5 L 16.59375,14.09375 C 16.593142,13.766083 16.327667,13.500608 16,13.5 C 15.291862,13.499908 14.582705,13.5 13.875,13.5 z" style="fill:#555753;fill-opacity:1;stroke:none"/><path id="rect2407" d="M 12,4.5 L 18,4.5 L 18,10.5 L 12,10.5 L 12,4.5 z" style="fill:url(#linearGradient2427);fill-opacity:1;stroke:none"/><path id="rect2409" d="M 2,19.5 L 8,19.5 L 8,25.5 L 2,25.5 L 2,19.5 z" style="fill:url(#linearGradient2424);fill-opacity:1;stroke:none"/><path id="rect2411" d="M 12,19.5 L 18,19.5 L 18,25.5 L 12,25.5 L 12,19.5 z" style="fill:url(#linearGradient2421);fill-opacity:1;stroke:none"/><path id="rect2413" d="M 22,19.5 L 28,19.5 L 28,25.5 L 22,25.5 L 22,19.5 z" style="fill:url(#linearGradient2418);fill-opacity:1;stroke:none"/></g></g></svg>